<?xml version="1.0" encoding="UTF-8"?>
<svg xmlns="http://www.w3.org/2000/svg" xmlns:xlink="http://www.w3.org/1999/xlink" width="40px" height="40px" viewBox="0 0 40 40" version="1.1">
<g id="surface1">
<path style=" stroke:none;fill-rule:evenodd;fill:rgb(3.529412%,18.039216%,12.54902%);fill-opacity:1;" d="M 5.613281 1.207031 L 7.675781 1.207031 L 7.675781 28.441406 C 6.617188 29.015625 5.84375 29.242188 5 29.242188 C 2.488281 29.242188 1.175781 25.996094 1.175781 19.765625 C 1.175781 13.769531 2.566406 9.871094 4.71875 9.871094 C 5.054688 9.871094 5.308594 9.949219 5.617188 10.175781 L 5.617188 1.207031 Z M 5.613281 14.914062 C 5.375 14.6875 5.175781 14.609375 4.921875 14.609375 C 3.878906 14.609375 3.277344 16.441406 3.277344 19.652344 C 3.277344 22.785156 3.851562 24.503906 4.90625 24.503906 C 5.132812 24.503906 5.320312 24.464844 5.613281 24.351562 Z M 10.949219 10.292969 L 10.949219 23.933594 C 10.949219 28.632812 10.828125 30.886719 10.46875 32.835938 C 10.132812 34.707031 9.691406 35.890625 8.785156 37.191406 L 6.871094 34.589844 C 7.78125 33.367188 8.222656 32.300781 8.503906 30.65625 C 8.796875 28.976562 8.890625 27.027344 8.890625 21.90625 L 8.890625 10.292969 Z M 8.890625 1.238281 L 10.949219 1.238281 L 10.949219 7.273438 L 8.890625 7.273438 Z M 12.191406 11.628906 C 13.101562 10.40625 13.972656 9.871094 14.921875 9.871094 C 15.976562 9.871094 16.671875 10.675781 16.980469 12.242188 C 17.152344 13.121094 17.207031 14.265625 17.207031 16.710938 L 17.207031 28.667969 C 16.285156 29.050781 15.121094 29.320312 14.265625 29.320312 C 12.539062 29.320312 11.765625 27.601562 11.765625 23.777344 C 11.765625 19.652344 12.792969 17.742188 15.320312 17.132812 L 15.320312 15.832031 C 15.320312 14.761719 15.132812 14.378906 14.613281 14.378906 C 13.851562 14.378906 12.996094 14.992188 12.191406 16.175781 Z M 15.414062 20.988281 C 14.050781 21.371094 13.609375 21.984375 13.609375 23.511719 C 13.609375 24.65625 13.863281 25.191406 14.425781 25.191406 C 14.734375 25.191406 15.015625 25.117188 15.414062 24.925781 Z M 18.210938 11.207031 C 19.425781 10.292969 20.429688 9.871094 21.445312 9.871094 C 22.5 9.871094 23.261719 10.558594 23.71875 11.898438 C 24.144531 13.15625 24.277344 14.53125 24.277344 17.476562 L 24.277344 29.011719 L 22.21875 29.011719 L 22.21875 17.703125 C 22.21875 15.449219 21.953125 14.609375 21.21875 14.609375 C 20.9375 14.609375 20.683594 14.6875 20.269531 15.03125 L 20.269531 29.011719 L 18.210938 29.011719 Z M 25.078125 32.222656 C 25.800781 33.292969 26.523438 33.789062 27.285156 33.789062 C 28.636719 33.789062 29.210938 32.222656 29.210938 28.476562 L 29.210938 28.363281 C 28.808594 28.9375 28.40625 29.167969 27.875 29.167969 C 26.070312 29.167969 24.917969 25.765625 24.917969 20.378906 C 24.917969 13.691406 26.617188 9.910156 29.625 9.910156 C 30.507812 9.910156 31.324219 10.175781 32.3125 10.75 L 31.605469 14.996094 C 31.058594 14.6875 31.5625 14.953125 31.148438 14.839844 L 31.148438 15.449219 L 31.175781 17.933594 L 31.1875 21.144531 C 31.203125 21.945312 31.203125 22.746094 31.214844 23.550781 L 31.214844 25.15625 C 31.214844 30.199219 31.070312 32.566406 30.628906 34.515625 C 29.984375 37.382812 28.875 38.796875 27.296875 38.796875 C 26.496094 38.796875 25.800781 38.453125 25.078125 37.648438 Z M 29.171875 14.648438 L 28.957031 14.648438 C 28.554688 14.609375 28.085938 14.914062 27.765625 15.488281 C 27.273438 16.289062 27.019531 17.742188 27.019531 19.804688 C 27.019531 22.746094 27.527344 24.429688 28.433594 24.429688 C 28.714844 24.429688 28.941406 24.273438 29.210938 24.046875 L 29.210938 22.019531 C 29.210938 21.332031 29.195312 20.570312 29.195312 19.765625 L 29.183594 17.054688 L 29.171875 15.105469 Z M 35.507812 9.796875 C 37.566406 9.796875 38.824219 13.5 38.824219 19.5 C 38.824219 25.652344 37.511719 29.511719 35.429688 29.511719 C 33.367188 29.511719 32.097656 25.804688 32.097656 19.84375 C 32.097656 13.652344 33.410156 9.796875 35.507812 9.796875 Z M 35.46875 24.773438 C 36.257812 24.773438 36.726562 22.898438 36.726562 19.652344 C 36.726562 16.445312 36.269531 14.53125 35.480469 14.53125 C 34.664062 14.53125 34.199219 16.40625 34.199219 19.652344 C 34.199219 22.898438 34.664062 24.773438 35.46875 24.773438 Z M 35.46875 24.773438 "/>
</g>
</svg>
