<?xml version="1.0" encoding="UTF-8"?>
<svg xmlns="http://www.w3.org/2000/svg" xmlns:xlink="http://www.w3.org/1999/xlink" width="40px" height="40px" viewBox="0 0 40 40" version="1.1">
<g id="surface1">
<path style=" stroke:none;fill-rule:evenodd;fill:rgb(22.745098%,30.196078%,32.941176%);fill-opacity:1;" d="M 6.25 30.28125 L 6.25 27.75 C 6.25 27.40625 6.46875 27.15625 6.8125 27.15625 L 6.90625 27.15625 C 7.25 27.15625 7.46875 27.4375 7.46875 27.75 L 7.46875 33.0625 C 7.46875 34.34375 6.84375 35.375 5.71875 36.03125 C 5.1875 36.34375 4.625 36.5 4.03125 36.5 L 3.78125 36.5 C 2.5 36.5 1.46875 35.875 0.8125 34.75 C 0.5 34.21875 0.34375 33.65625 0.34375 33.0625 L 0.34375 32.8125 C 0.34375 31.53125 0.96875 30.5 2.09375 29.84375 C 2.625 29.53125 3.1875 29.375 3.78125 29.375 L 4.03125 29.375 C 4.875 29.40625 5.625 29.71875 6.25 30.28125 Z M 1.53125 32.9375 C 1.53125 33.875 2 34.5625 2.8125 35.03125 C 3.15625 35.21875 3.5 35.3125 3.875 35.3125 C 4.78125 35.3125 5.46875 34.875 5.9375 34.09375 C 6.15625 33.71875 6.25 33.34375 6.25 32.90625 C 6.25 32.09375 5.875 31.46875 5.21875 31 C 4.8125 30.71875 4.375 30.5625 3.90625 30.5625 C 2.90625 30.5625 2.1875 31.0625 1.75 31.96875 C 1.59375 32.28125 1.53125 32.625 1.53125 32.9375 Z M 11.59375 29.40625 L 11.75 29.40625 C 13.125 29.40625 14.1875 30.0625 14.84375 31.28125 C 15.125 31.75 15.25 32.28125 15.25 32.84375 L 15.25 33.09375 C 15.25 34.375 14.625 35.40625 13.5 36.0625 C 12.96875 36.375 12.40625 36.53125 11.8125 36.53125 L 11.5625 36.53125 C 10.28125 36.53125 9.25 35.90625 8.59375 34.78125 C 8.28125 34.25 8.125 33.6875 8.125 33.09375 L 8.125 32.84375 C 8.125 31.5625 8.78125 30.53125 9.875 29.875 C 10.40625 29.53125 11 29.40625 11.59375 29.40625 Z M 9.34375 32.9375 C 9.34375 33.84375 9.78125 34.5 10.5625 34.96875 C 10.9375 35.1875 11.3125 35.28125 11.75 35.28125 C 12.65625 35.28125 13.3125 34.8125 13.78125 34.0625 C 14 33.6875 14.09375 33.3125 14.09375 32.875 C 14.09375 32.03125 13.6875 31.375 13 30.90625 C 12.625 30.65625 12.1875 30.53125 11.75 30.53125 C 10.75 30.53125 10.03125 31.03125 9.59375 31.9375 C 9.40625 32.28125 9.34375 32.625 9.34375 32.9375 Z M 20.21875 30.6875 C 20.03125 30.59375 19.6875 30.5625 19.5 30.5625 C 18.5 30.53125 17.78125 31.09375 17.34375 31.96875 C 17.1875 32.28125 17.125 32.59375 17.125 32.9375 C 17.125 33.96875 17.65625 34.6875 18.5625 35.125 C 18.90625 35.28125 19.3125 35.3125 19.6875 35.3125 C 20 35.3125 20.46875 35.125 20.75 34.96875 L 20.8125 34.9375 L 21.0625 34.9375 C 21.34375 35 21.53125 35.15625 21.53125 35.46875 L 21.53125 35.59375 C 21.53125 36.3125 20.1875 36.5 19.6875 36.53125 C 17.90625 36.65625 16.5625 35.6875 16.0625 33.96875 C 15.96875 33.6875 15.9375 33.375 15.9375 33.0625 L 15.9375 32.8125 C 15.9375 31.53125 16.59375 30.5 17.6875 29.84375 C 18.21875 29.53125 18.78125 29.375 19.375 29.375 L 19.625 29.375 C 20.25 29.375 20.84375 29.5625 21.375 29.90625 L 21.4375 29.96875 C 21.5 30.0625 21.53125 30.15625 21.53125 30.28125 L 21.53125 30.40625 C 21.53125 30.71875 21.3125 30.875 21.03125 30.9375 L 20.9375 30.9375 C 20.78125 30.9375 20.375 30.75 20.21875 30.6875 Z M 24.09375 31.5 C 24.5625 31.03125 25.03125 30.5625 25.5 30.125 C 25.625 30 26.125 29.46875 26.3125 29.46875 L 26.5625 29.46875 C 26.84375 29.53125 27.03125 29.6875 27.03125 30 L 27.03125 30.125 C 27.03125 30.3125 26.8125 30.5625 26.65625 30.6875 L 25.8125 31.53125 L 24.375 33 C 25 33.625 25.625 34.25 26.21875 34.875 L 26.71875 35.40625 C 26.78125 35.46875 26.875 35.53125 26.90625 35.625 C 26.96875 35.71875 27 35.8125 27 35.90625 L 27 36.0625 C 26.9375 36.34375 26.75 36.5625 26.46875 36.5625 L 26.375 36.5625 C 26.1875 36.5625 25.96875 36.34375 25.8125 36.21875 C 25.53125 35.96875 25.25 35.6875 25 35.40625 L 24.09375 34.5 L 24.09375 35.9375 C 24.09375 36.28125 23.875 36.53125 23.53125 36.53125 L 23.4375 36.53125 C 23.09375 36.53125 22.875 36.25 22.875 35.9375 L 22.875 27.78125 C 22.875 27.4375 23.09375 27.1875 23.4375 27.1875 L 23.53125 27.1875 C 23.875 27.1875 24.09375 27.4375 24.09375 27.78125 Z M 38.96875 29.4375 L 39.09375 29.4375 C 39.4375 29.4375 39.6875 29.6875 39.6875 30.03125 C 39.6875 30.53125 39.21875 30.65625 38.8125 30.65625 C 38.28125 30.65625 37.75 30.96875 37.40625 31.34375 C 36.9375 31.8125 36.75 32.375 36.75 33.03125 L 36.75 35.90625 C 36.75 36.25 36.53125 36.5 36.1875 36.5 L 36.09375 36.5 C 35.75 36.5 35.53125 36.21875 35.53125 35.90625 L 35.53125 32.84375 C 35.53125 31.65625 36.09375 30.71875 37.0625 30.03125 C 37.625 29.65625 38.28125 29.4375 38.96875 29.4375 Z M 30.5 35.15625 C 30.9375 35.3125 31.4375 35.28125 31.875 35.21875 C 32.09375 35.125 32.6875 34.875 32.90625 34.90625 L 32.96875 34.90625 C 33.09375 34.96875 33.21875 35.0625 33.28125 35.1875 C 33.4375 35.5 33.375 35.8125 33.0625 36 L 32.96875 36.0625 C 31.84375 36.71875 30.625 36.625 29.5 36 C 28.96875 35.71875 28.5625 35.28125 28.25 34.75 L 28.1875 34.625 C 27.46875 33.375 27.5625 32.03125 28.375 30.84375 C 28.65625 30.4375 29.03125 30.125 29.46875 29.875 L 29.625 29.78125 C 30.6875 29.15625 31.84375 29.21875 32.9375 29.75 C 33.53125 30.03125 34 30.46875 34.34375 31.03125 L 34.40625 31.125 C 34.65625 31.53125 34.34375 31.90625 34.03125 32.15625 C 33.65625 32.4375 33.28125 32.78125 32.9375 33.09375 C 32.09375 33.78125 31.28125 34.46875 30.5 35.15625 Z M 29.46875 34.4375 L 32.125 32.15625 C 32.4375 31.90625 32.75 31.625 33.0625 31.34375 C 32.8125 31.03125 32.40625 30.8125 32.09375 30.6875 C 31.40625 30.4375 30.71875 30.5 30.09375 30.875 C 29.28125 31.34375 28.90625 32.125 28.9375 33.0625 C 28.9375 33.4375 29.0625 33.78125 29.25 34.125 C 29.3125 34.25 29.375 34.34375 29.46875 34.4375 M 23.03125 10.53125 L 26.5625 10.53125 L 26.5625 14.125 L 28.34375 14.125 C 29.15625 14.125 30 13.96875 30.78125 13.71875 C 31.15625 13.59375 31.59375 13.40625 31.96875 13.1875 C 31.46875 12.53125 31.21875 11.71875 31.15625 10.90625 C 31.0625 9.8125 31.28125 8.375 32.03125 7.53125 L 32.40625 7.09375 L 32.84375 7.4375 C 33.96875 8.34375 34.875 9.5625 35.0625 11 C 36.40625 10.59375 37.96875 10.6875 39.15625 11.375 L 39.625 11.65625 L 39.375 12.15625 C 38.375 14.09375 36.28125 14.71875 34.25 14.59375 C 31.1875 22.1875 24.5625 25.78125 16.5 25.78125 C 12.34375 25.78125 8.53125 24.21875 6.34375 20.53125 L 6.3125 20.46875 L 6 19.8125 C 5.25 18.1875 5.03125 16.40625 5.1875 14.625 L 5.25 14.09375 L 8.25 14.09375 L 8.25 10.53125 L 11.78125 10.53125 L 11.78125 7 L 18.8125 7 L 18.8125 3.46875 L 23.03125 3.46875 Z M 23.03125 10.53125 "/>
<path style=" stroke:none;fill-rule:nonzero;fill:rgb(0%,66.666667%,85.490196%);fill-opacity:1;" d="M 34.4375 11.84375 C 34.6875 10 33.3125 8.5625 32.4375 7.875 C 31.46875 9 31.3125 12 32.84375 13.25 C 31.96875 14 30.1875 14.71875 28.3125 14.71875 L 5.75 14.71875 C 5.5625 16.65625 5.90625 18.4375 6.6875 19.96875 L 6.9375 20.4375 C 7.09375 20.71875 7.28125 20.96875 7.46875 21.25 C 8.40625 21.3125 9.25 21.34375 10.03125 21.3125 C 11.5625 21.28125 12.8125 21.09375 13.78125 20.78125 C 13.9375 20.71875 14.0625 20.8125 14.125 20.9375 C 14.1875 21.09375 14.09375 21.21875 13.96875 21.28125 C 13.84375 21.3125 13.71875 21.375 13.5625 21.40625 C 12.8125 21.625 12 21.75 10.96875 21.8125 L 10.78125 21.8125 C 10.375 21.84375 9.9375 21.84375 9.46875 21.84375 C 8.96875 21.84375 8.5 21.84375 7.9375 21.8125 C 9.8125 23.9375 12.75 25.1875 16.4375 25.1875 C 24.25 25.1875 30.875 21.71875 33.78125 13.96875 C 35.875 14.1875 37.875 13.65625 38.78125 11.875 C 37.375 11.0625 35.5 11.3125 34.4375 11.84375 Z M 34.4375 11.84375 "/>
<path style=" stroke:none;fill-rule:nonzero;fill:rgb(15.686275%,72.156863%,92.156863%);fill-opacity:1;" d="M 34.4375 11.84375 C 34.6875 10 33.3125 8.5625 32.4375 7.875 C 31.46875 9 31.3125 12 32.84375 13.25 C 31.96875 14 30.1875 14.71875 28.3125 14.71875 L 7.0625 14.71875 C 6.96875 17.6875 8.0625 19.9375 10.03125 21.28125 C 11.5625 21.25 12.8125 21.0625 13.78125 20.75 C 13.9375 20.6875 14.0625 20.78125 14.125 20.90625 C 14.1875 21.0625 14.09375 21.1875 13.96875 21.25 C 13.84375 21.28125 13.71875 21.34375 13.5625 21.375 C 12.8125 21.59375 11.9375 21.75 10.90625 21.8125 L 10.875 21.78125 C 13.53125 23.15625 17.375 23.125 21.8125 21.4375 C 26.75 19.53125 31.375 15.90625 34.59375 11.78125 C 34.53125 11.8125 34.5 11.84375 34.4375 11.84375 Z M 34.4375 11.84375 "/>
<path style=" stroke:none;fill-rule:nonzero;fill:rgb(0.784314%,54.509804%,72.156863%);fill-opacity:1;" d="M 5.78125 17.0625 C 5.90625 18.09375 6.21875 19.0625 6.6875 19.96875 L 6.9375 20.4375 C 7.09375 20.71875 7.28125 20.96875 7.46875 21.25 C 8.40625 21.3125 9.25 21.34375 10.03125 21.3125 C 11.5625 21.28125 12.8125 21.09375 13.78125 20.78125 C 13.9375 20.71875 14.0625 20.8125 14.125 20.9375 C 14.1875 21.09375 14.09375 21.21875 13.96875 21.28125 C 13.84375 21.3125 13.71875 21.375 13.5625 21.40625 C 12.8125 21.625 11.9375 21.78125 10.90625 21.84375 L 10.78125 21.84375 C 10.375 21.875 9.9375 21.875 9.5 21.875 C 9 21.875 8.5 21.875 7.96875 21.84375 C 9.84375 23.96875 12.8125 25.21875 16.5 25.21875 C 23.1875 25.21875 29 22.6875 32.375 17.09375 L 5.78125 17.09375 Z M 5.78125 17.0625 "/>
<path style=" stroke:none;fill-rule:nonzero;fill:rgb(0.392157%,60.784314%,77.647059%);fill-opacity:1;" d="M 7.28125 17.0625 C 7.6875 18.875 8.625 20.3125 10.03125 21.28125 C 11.5625 21.25 12.8125 21.0625 13.78125 20.75 C 13.9375 20.6875 14.0625 20.78125 14.125 20.90625 C 14.1875 21.0625 14.09375 21.1875 13.96875 21.25 C 13.84375 21.28125 13.71875 21.34375 13.5625 21.375 C 12.8125 21.59375 11.9375 21.75 10.875 21.8125 C 13.53125 23.1875 17.375 23.15625 21.78125 21.46875 C 24.4375 20.4375 27.03125 18.90625 29.34375 17.0625 Z M 7.28125 17.0625 "/>
<path style=" stroke:none;fill-rule:evenodd;fill:rgb(0%,67.45098%,82.745098%);fill-opacity:1;" d="M 8.8125 11.09375 L 11.875 11.09375 L 11.875 14.15625 L 8.8125 14.15625 Z M 9.0625 11.375 L 9.3125 11.375 L 9.3125 13.90625 L 9.0625 13.90625 Z M 9.53125 11.375 L 9.78125 11.375 L 9.78125 13.90625 L 9.53125 13.90625 Z M 10 11.375 L 10.25 11.375 L 10.25 13.90625 L 10 13.90625 Z M 10.4375 11.375 L 10.6875 11.375 L 10.6875 13.90625 L 10.4375 13.90625 Z M 10.90625 11.375 L 11.15625 11.375 L 11.15625 13.90625 L 10.90625 13.90625 Z M 11.375 11.375 L 11.625 11.375 L 11.625 13.90625 L 11.375 13.90625 Z M 12.34375 7.59375 L 15.40625 7.59375 L 15.40625 10.625 L 12.34375 10.625 Z M 12.59375 7.84375 L 12.84375 7.84375 L 12.84375 10.375 L 12.59375 10.375 Z M 13.0625 7.84375 L 13.3125 7.84375 L 13.3125 10.375 L 13.0625 10.375 Z M 13.5 7.84375 L 13.75 7.84375 L 13.75 10.375 L 13.5 10.375 Z M 13.96875 7.84375 L 14.21875 7.84375 L 14.21875 10.375 L 13.96875 10.375 Z M 14.4375 7.84375 L 14.6875 7.84375 L 14.6875 10.375 L 14.4375 10.375 Z M 14.90625 7.84375 L 15.15625 7.84375 L 15.15625 10.375 L 14.90625 10.375 Z M 14.90625 7.84375 "/>
<path style=" stroke:none;fill-rule:evenodd;fill:rgb(13.72549%,76.078431%,93.333333%);fill-opacity:1;" d="M 12.34375 11.09375 L 15.40625 11.09375 L 15.40625 14.15625 L 12.34375 14.15625 Z M 12.59375 11.375 L 12.84375 11.375 L 12.84375 13.90625 L 12.59375 13.90625 Z M 13.0625 11.375 L 13.3125 11.375 L 13.3125 13.90625 L 13.0625 13.90625 Z M 13.5 11.375 L 13.75 11.375 L 13.75 13.90625 L 13.5 13.90625 Z M 13.96875 11.375 L 14.21875 11.375 L 14.21875 13.90625 L 13.96875 13.90625 Z M 14.4375 11.375 L 14.6875 11.375 L 14.6875 13.90625 L 14.4375 13.90625 Z M 14.90625 11.375 L 15.15625 11.375 L 15.15625 13.90625 L 14.90625 13.90625 Z M 14.90625 11.375 "/>
<path style=" stroke:none;fill-rule:evenodd;fill:rgb(0%,67.45098%,82.745098%);fill-opacity:1;" d="M 15.875 11.09375 L 18.9375 11.09375 L 18.9375 14.15625 L 15.875 14.15625 Z M 16.125 11.375 L 16.375 11.375 L 16.375 13.90625 L 16.125 13.90625 Z M 16.5625 11.375 L 16.8125 11.375 L 16.8125 13.90625 L 16.5625 13.90625 Z M 17.03125 11.375 L 17.28125 11.375 L 17.28125 13.90625 L 17.03125 13.90625 Z M 17.5 11.375 L 17.75 11.375 L 17.75 13.90625 L 17.5 13.90625 Z M 17.96875 11.375 L 18.21875 11.375 L 18.21875 13.90625 L 17.96875 13.90625 Z M 18.40625 11.375 L 18.65625 11.375 L 18.65625 13.90625 L 18.40625 13.90625 Z M 18.40625 11.375 "/>
<path style=" stroke:none;fill-rule:evenodd;fill:rgb(13.72549%,76.078431%,93.333333%);fill-opacity:1;" d="M 15.875 7.59375 L 18.9375 7.59375 L 18.9375 10.625 L 15.875 10.625 Z M 16.125 7.84375 L 16.375 7.84375 L 16.375 10.375 L 16.125 10.375 Z M 16.5625 7.84375 L 16.8125 7.84375 L 16.8125 10.375 L 16.5625 10.375 Z M 17.03125 7.84375 L 17.28125 7.84375 L 17.28125 10.375 L 17.03125 10.375 Z M 17.5 7.84375 L 17.75 7.84375 L 17.75 10.375 L 17.5 10.375 Z M 17.96875 7.84375 L 18.21875 7.84375 L 18.21875 10.375 L 17.96875 10.375 Z M 18.40625 7.84375 L 18.65625 7.84375 L 18.65625 10.375 L 18.40625 10.375 Z M 19.375 11.09375 L 22.4375 11.09375 L 22.4375 14.15625 L 19.375 14.15625 Z M 19.65625 11.375 L 19.90625 11.375 L 19.90625 13.90625 L 19.65625 13.90625 Z M 20.09375 11.375 L 20.34375 11.375 L 20.34375 13.90625 L 20.09375 13.90625 Z M 20.5625 11.375 L 20.8125 11.375 L 20.8125 13.90625 L 20.5625 13.90625 Z M 21.03125 11.375 L 21.28125 11.375 L 21.28125 13.90625 L 21.03125 13.90625 Z M 21.46875 11.375 L 21.71875 11.375 L 21.71875 13.90625 L 21.46875 13.90625 Z M 21.9375 11.375 L 22.1875 11.375 L 22.1875 13.90625 L 21.9375 13.90625 Z M 21.9375 11.375 "/>
<path style=" stroke:none;fill-rule:evenodd;fill:rgb(0%,67.45098%,82.745098%);fill-opacity:1;" d="M 19.375 7.59375 L 22.4375 7.59375 L 22.4375 10.625 L 19.375 10.625 Z M 19.65625 7.84375 L 19.90625 7.84375 L 19.90625 10.375 L 19.65625 10.375 Z M 20.09375 7.84375 L 20.34375 7.84375 L 20.34375 10.375 L 20.09375 10.375 Z M 20.5625 7.84375 L 20.8125 7.84375 L 20.8125 10.375 L 20.5625 10.375 Z M 21.03125 7.84375 L 21.28125 7.84375 L 21.28125 10.375 L 21.03125 10.375 Z M 21.46875 7.84375 L 21.71875 7.84375 L 21.71875 10.375 L 21.46875 10.375 Z M 21.9375 7.84375 L 22.1875 7.84375 L 22.1875 10.375 L 21.9375 10.375 Z M 21.9375 7.84375 "/>
<path style=" stroke:none;fill-rule:evenodd;fill:rgb(13.72549%,76.078431%,93.333333%);fill-opacity:1;" d="M 19.375 4.0625 L 22.4375 4.0625 L 22.4375 7.125 L 19.375 7.125 Z M 19.65625 4.3125 L 19.90625 4.3125 L 19.90625 6.875 L 19.65625 6.875 Z M 20.09375 4.3125 L 20.34375 4.3125 L 20.34375 6.875 L 20.09375 6.875 Z M 20.5625 4.3125 L 20.8125 4.3125 L 20.8125 6.875 L 20.5625 6.875 Z M 21.03125 4.3125 L 21.28125 4.3125 L 21.28125 6.875 L 21.03125 6.875 Z M 21.46875 4.3125 L 21.71875 4.3125 L 21.71875 6.875 L 21.46875 6.875 Z M 21.9375 4.3125 L 22.1875 4.3125 L 22.1875 6.875 L 21.9375 6.875 Z M 21.9375 4.3125 "/>
<path style=" stroke:none;fill-rule:evenodd;fill:rgb(0%,67.45098%,82.745098%);fill-opacity:1;" d="M 22.90625 11.09375 L 25.96875 11.09375 L 25.96875 14.15625 L 22.90625 14.15625 Z M 23.15625 11.375 L 23.40625 11.375 L 23.40625 13.90625 L 23.15625 13.90625 Z M 23.625 11.375 L 23.875 11.375 L 23.875 13.90625 L 23.625 13.90625 Z M 24.09375 11.375 L 24.34375 11.375 L 24.34375 13.90625 L 24.09375 13.90625 Z M 24.53125 11.375 L 24.78125 11.375 L 24.78125 13.90625 L 24.53125 13.90625 Z M 25 11.375 L 25.25 11.375 L 25.25 13.90625 L 25 13.90625 Z M 25.46875 11.375 L 25.71875 11.375 L 25.71875 13.90625 L 25.46875 13.90625 Z M 25.46875 11.375 "/>
<path style=" stroke:none;fill-rule:evenodd;fill:rgb(83.137255%,93.333333%,94.509804%);fill-opacity:1;" d="M 15.1875 19.125 C 15.65625 19.125 16.03125 19.5 16.03125 19.96875 C 16.03125 20.4375 15.65625 20.8125 15.1875 20.8125 C 14.71875 20.8125 14.34375 20.4375 14.34375 19.96875 C 14.375 19.5 14.75 19.125 15.1875 19.125 "/>
<path style=" stroke:none;fill-rule:evenodd;fill:rgb(22.745098%,30.196078%,32.941176%);fill-opacity:1;" d="M 15.1875 19.34375 C 15.25 19.34375 15.34375 19.34375 15.40625 19.375 C 15.34375 19.40625 15.28125 19.5 15.28125 19.59375 C 15.28125 19.71875 15.40625 19.84375 15.53125 19.84375 C 15.625 19.84375 15.71875 19.78125 15.75 19.71875 C 15.78125 19.78125 15.78125 19.875 15.78125 19.9375 C 15.78125 20.28125 15.5 20.53125 15.1875 20.53125 C 14.84375 20.53125 14.59375 20.25 14.59375 19.9375 C 14.59375 19.625 14.875 19.34375 15.1875 19.34375 M 0.3125 17.375 L 39.46875 17.375 C 38.625 17.15625 36.78125 16.875 37.0625 15.75 C 35.5 17.53125 31.78125 17 30.8125 16.125 C 29.75 17.65625 23.625 17.0625 23.21875 15.875 C 21.90625 17.4375 17.8125 17.4375 16.5 15.875 C 16.0625 17.0625 9.9375 17.65625 8.90625 16.125 C 7.96875 17 4.21875 17.53125 2.65625 15.75 C 3 16.84375 1.15625 17.15625 0.3125 17.375 "/>
<path style=" stroke:none;fill-rule:nonzero;fill:rgb(74.901961%,85.882353%,87.843137%);fill-opacity:1;" d="M 17.4375 25.1875 C 15.34375 24.1875 14.21875 22.84375 13.5625 21.375 C 12.78125 21.59375 11.84375 21.75 10.78125 21.8125 C 10.375 21.84375 9.9375 21.84375 9.5 21.84375 C 8.96875 21.84375 8.4375 21.84375 7.875 21.8125 C 9.78125 23.71875 12.15625 25.1875 16.5 25.21875 C 16.8125 25.1875 17.125 25.1875 17.4375 25.1875 Z M 17.4375 25.1875 "/>
<path style=" stroke:none;fill-rule:nonzero;fill:rgb(83.137255%,93.333333%,94.509804%);fill-opacity:1;" d="M 14.34375 22.71875 C 14.0625 22.3125 13.78125 21.84375 13.5625 21.375 C 12.78125 21.59375 11.84375 21.75 10.78125 21.8125 C 11.53125 22.21875 12.59375 22.59375 14.34375 22.71875 Z M 14.34375 22.71875 "/>
</g>
</svg>
