<?xml version="1.0" encoding="UTF-8"?>
<svg xmlns="http://www.w3.org/2000/svg" xmlns:xlink="http://www.w3.org/1999/xlink" width="40px" height="40px" viewBox="0 0 40 40" version="1.1">
<g id="surface1">
<path style=" stroke:none;fill-rule:nonzero;fill:rgb(0%,38.039216%,54.117647%);fill-opacity:1;" d="M 0.625 28.269531 L 1.910156 28.269531 L 1.910156 23.199219 L 3.898438 27.617188 C 4.132812 28.152344 4.453125 28.34375 5.082031 28.34375 C 5.710938 28.34375 6.019531 28.152344 6.253906 27.617188 L 8.242188 23.199219 L 8.242188 28.269531 L 9.527344 28.269531 L 9.527344 23.207031 C 9.527344 22.714844 9.328125 22.472656 8.921875 22.351562 C 7.945312 22.046875 7.289062 22.308594 6.996094 22.96875 L 5.042969 27.332031 L 3.15625 22.96875 C 2.871094 22.308594 2.207031 22.046875 1.230469 22.351562 C 0.824219 22.472656 0.625 22.710938 0.625 23.207031 Z M 10.59375 24.140625 L 11.875 24.140625 L 11.875 26.933594 C 11.863281 27.085938 11.925781 27.441406 12.628906 27.453125 C 12.988281 27.460938 15.398438 27.453125 15.421875 27.453125 L 15.421875 24.128906 L 16.707031 24.128906 C 16.714844 24.128906 16.707031 28.664062 16.707031 28.683594 C 16.710938 29.800781 15.316406 30.042969 14.675781 30.0625 L 10.621094 30.0625 L 10.621094 29.199219 C 10.628906 29.199219 14.671875 29.199219 14.683594 29.199219 C 15.507812 29.109375 15.410156 28.699219 15.410156 28.5625 L 15.410156 28.226562 L 12.683594 28.226562 C 11.414062 28.214844 10.605469 27.660156 10.59375 27.023438 C 10.59375 26.964844 10.621094 24.167969 10.59375 24.140625 Z M 10.59375 24.140625 "/>
<path style=" stroke:none;fill-rule:nonzero;fill:rgb(89.411765%,55.686275%,0%);fill-opacity:1;" d="M 17.695312 28.269531 L 21.386719 28.269531 C 21.820312 28.269531 22.242188 28.179688 22.574219 28.023438 C 23.128906 27.765625 23.398438 27.421875 23.398438 26.96875 L 23.398438 26.03125 C 23.398438 25.660156 23.09375 25.3125 22.488281 25.082031 C 22.164062 24.960938 21.769531 24.894531 21.386719 24.894531 L 19.832031 24.894531 C 19.3125 24.894531 19.066406 24.738281 19.003906 24.390625 C 18.992188 24.351562 18.992188 24.320312 18.992188 24.277344 L 18.992188 23.691406 C 18.992188 23.660156 18.992188 23.625 19.003906 23.585938 C 19.066406 23.324219 19.203125 23.25 19.660156 23.207031 L 19.78125 23.199219 L 23.449219 23.199219 L 23.449219 22.34375 L 19.84375 22.34375 C 19.328125 22.34375 19.054688 22.375 18.808594 22.449219 C 18.042969 22.6875 17.710938 23.066406 17.710938 23.726562 L 17.710938 24.476562 C 17.710938 25.050781 18.363281 25.542969 19.460938 25.660156 C 19.585938 25.667969 19.710938 25.675781 19.832031 25.675781 L 21.164062 25.675781 C 21.214844 25.675781 21.265625 25.675781 21.300781 25.683594 C 21.710938 25.71875 21.882812 25.792969 22.003906 25.9375 C 22.078125 26.011719 22.105469 26.085938 22.105469 26.167969 L 22.105469 26.917969 C 22.105469 27.007812 22.042969 27.125 21.917969 27.222656 C 21.808594 27.320312 21.621094 27.386719 21.375 27.40625 L 21.238281 27.414062 L 17.695312 27.414062 Z M 31.410156 26.777344 C 31.410156 27.660156 32.0625 28.152344 33.382812 28.25 C 33.507812 28.261719 33.632812 28.269531 33.753906 28.269531 L 37.101562 28.269531 L 37.101562 27.414062 L 33.730469 27.414062 C 32.976562 27.414062 32.695312 27.222656 32.695312 26.769531 L 32.695312 22.34375 L 31.410156 22.34375 Z M 24.21875 26.824219 L 24.21875 23.773438 C 24.21875 22.996094 24.765625 22.527344 25.839844 22.378906 C 25.953125 22.359375 26.074219 22.351562 26.1875 22.351562 L 28.625 22.351562 C 28.746094 22.351562 28.859375 22.359375 28.980469 22.378906 C 30.058594 22.527344 30.601562 22.996094 30.601562 23.773438 L 30.601562 26.824219 C 30.601562 27.453125 30.371094 27.789062 29.839844 28.007812 L 31.105469 29.148438 L 29.613281 29.148438 L 28.589844 28.226562 L 27.558594 28.292969 L 26.1875 28.292969 C 25.953125 28.292969 25.703125 28.257812 25.433594 28.183594 C 24.617188 27.960938 24.21875 27.53125 24.21875 26.824219 Z M 25.605469 26.75 C 25.605469 26.789062 25.617188 26.832031 25.628906 26.882812 C 25.703125 27.234375 26.039062 27.433594 26.546875 27.433594 L 27.710938 27.433594 L 26.640625 26.464844 L 28.132812 26.464844 L 29.066406 27.308594 C 29.238281 27.21875 29.351562 27.078125 29.390625 26.898438 C 29.402344 26.855469 29.402344 26.816406 29.402344 26.773438 L 29.402344 23.847656 C 29.402344 23.8125 29.402344 23.773438 29.390625 23.730469 C 29.316406 23.402344 28.980469 23.210938 28.488281 23.210938 L 26.546875 23.210938 C 25.976562 23.210938 25.605469 23.460938 25.605469 23.847656 Z M 25.605469 26.75 "/>
<path style=" stroke:none;fill-rule:nonzero;fill:rgb(0%,38.039216%,54.117647%);fill-opacity:1;" d="M 38.230469 20.921875 C 37.441406 20.902344 36.839844 20.972656 36.324219 21.191406 C 36.175781 21.253906 35.941406 21.253906 35.917969 21.4375 C 36 21.523438 36.011719 21.648438 36.074219 21.753906 C 36.199219 21.953125 36.40625 22.21875 36.59375 22.359375 C 36.792969 22.511719 37.003906 22.675781 37.21875 22.808594 C 37.605469 23.042969 38.039062 23.175781 38.410156 23.414062 C 38.628906 23.550781 38.847656 23.726562 39.058594 23.882812 C 39.167969 23.960938 39.238281 24.082031 39.375 24.132812 L 39.375 24.109375 C 39.300781 24.015625 39.285156 23.890625 39.21875 23.792969 L 38.925781 23.503906 C 38.640625 23.125 38.277344 22.792969 37.894531 22.515625 C 37.585938 22.296875 36.898438 21.996094 36.769531 21.640625 L 36.75 21.617188 C 36.964844 21.59375 37.222656 21.515625 37.421875 21.460938 C 37.757812 21.371094 38.0625 21.394531 38.410156 21.304688 L 38.878906 21.167969 L 38.878906 21.078125 C 38.703125 20.898438 38.578125 20.660156 38.386719 20.496094 C 37.882812 20.066406 37.335938 19.640625 36.769531 19.285156 C 36.457031 19.085938 36.070312 18.957031 35.738281 18.789062 C 35.628906 18.734375 35.429688 18.703125 35.355469 18.609375 C 35.183594 18.386719 35.085938 18.105469 34.953125 17.847656 C 34.671875 17.304688 34.394531 16.714844 34.144531 16.140625 C 33.976562 15.753906 33.863281 15.371094 33.652344 15.019531 C 32.632812 13.34375 31.535156 12.332031 29.835938 11.339844 C 29.476562 11.128906 29.039062 11.046875 28.582031 10.9375 L 27.839844 10.890625 C 27.6875 10.828125 27.53125 10.644531 27.390625 10.554688 C 26.828125 10.199219 25.382812 9.425781 24.96875 10.441406 C 24.703125 11.085938 25.359375 11.710938 25.59375 12.035156 C 25.761719 12.265625 25.972656 12.519531 26.089844 12.777344 C 26.167969 12.945312 26.179688 13.113281 26.246094 13.292969 C 26.410156 13.730469 26.550781 14.210938 26.761719 14.617188 C 26.867188 14.820312 26.988281 15.039062 27.121094 15.222656 C 27.203125 15.335938 27.347656 15.386719 27.367188 15.558594 C 27.230469 15.753906 27.222656 16.054688 27.144531 16.300781 C 26.792969 17.40625 26.925781 18.78125 27.4375 19.597656 C 27.59375 19.851562 27.960938 20.390625 28.46875 20.183594 C 28.910156 20 28.8125 19.441406 28.9375 18.949219 C 28.96875 18.835938 28.949219 18.753906 29.007812 18.679688 L 29.007812 18.699219 L 29.410156 19.507812 C 29.710938 19.992188 30.238281 20.492188 30.691406 20.832031 C 30.921875 21.007812 31.105469 21.3125 31.40625 21.417969 L 31.40625 21.394531 L 31.386719 21.394531 C 31.328125 21.300781 31.234375 21.265625 31.160156 21.191406 C 30.984375 21.019531 30.789062 20.804688 30.644531 20.609375 C 30.234375 20.054688 29.875 19.445312 29.546875 18.8125 C 29.386719 18.511719 29.25 18.179688 29.117188 17.871094 C 29.066406 17.75 29.070312 17.574219 28.960938 17.511719 C 28.816406 17.738281 28.601562 17.917969 28.492188 18.183594 C 28.3125 18.609375 28.289062 19.128906 28.222656 19.664062 L 28.175781 19.6875 C 27.863281 19.613281 27.753906 19.289062 27.636719 19.015625 C 27.34375 18.316406 27.289062 17.191406 27.546875 16.390625 C 27.613281 16.179688 27.917969 15.527344 27.792969 15.335938 C 27.734375 15.144531 27.542969 15.03125 27.4375 14.886719 C 27.300781 14.703125 27.167969 14.464844 27.078125 14.257812 C 26.835938 13.710938 26.722656 13.101562 26.472656 12.550781 C 26.351562 12.289062 26.144531 12.023438 25.976562 11.789062 C 25.792969 11.53125 25.582031 11.339844 25.4375 11.027344 C 25.386719 10.914062 25.316406 10.734375 25.394531 10.621094 C 25.417969 10.542969 25.453125 10.511719 25.527344 10.488281 C 25.660156 10.386719 26.019531 10.519531 26.15625 10.578125 C 26.515625 10.726562 26.816406 10.867188 27.121094 11.070312 C 27.269531 11.167969 27.417969 11.355469 27.59375 11.40625 L 27.796875 11.40625 C 28.109375 11.480469 28.464844 11.429688 28.761719 11.519531 C 29.28125 11.675781 29.75 11.925781 30.175781 12.191406 C 31.46875 13.007812 32.523438 14.171875 33.25 15.558594 C 33.363281 15.78125 33.414062 15.996094 33.515625 16.230469 C 33.722656 16.710938 33.984375 17.199219 34.191406 17.667969 C 34.394531 18.132812 34.597656 18.605469 34.886719 18.992188 C 35.039062 19.195312 35.628906 19.304688 35.894531 19.417969 C 36.085938 19.496094 36.390625 19.582031 36.570312 19.6875 C 36.910156 19.890625 37.238281 20.136719 37.558594 20.359375 C 37.714844 20.472656 38.207031 20.71875 38.230469 20.921875 Z M 28.199219 12.371094 C 28.035156 12.371094 27.917969 12.390625 27.796875 12.417969 L 27.796875 12.441406 L 27.816406 12.441406 C 27.894531 12.601562 28.035156 12.707031 28.132812 12.84375 L 28.355469 13.316406 L 28.378906 13.292969 C 28.515625 13.195312 28.582031 13.039062 28.582031 12.800781 C 28.523438 12.742188 28.515625 12.667969 28.46875 12.597656 C 28.40625 12.503906 28.28125 12.453125 28.199219 12.371094 Z M 28.199219 12.371094 "/>
</g>
</svg>
