<?xml version="1.0" encoding="UTF-8"?>
<svg xmlns="http://www.w3.org/2000/svg" xmlns:xlink="http://www.w3.org/1999/xlink" width="40px" height="40px" viewBox="0 0 40 40" version="1.1">
<g id="surface1">
<path style=" stroke:none;fill-rule:nonzero;fill:rgb(0%,60%,0%);fill-opacity:1;" d="M 7.65625 15.78125 C 7.1875 15.78125 6.875 16.15625 6.875 16.625 L 6.875 21.03125 L 1.90625 16.03125 C 1.65625 15.78125 1.21875 15.71875 0.90625 15.84375 C 0.59375 15.96875 0.3125 16.28125 0.3125 16.625 L 0.3125 23.09375 C 0.3125 23.5625 0.78125 23.9375 1.25 23.9375 C 1.71875 23.9375 2.1875 23.5625 2.1875 23.09375 L 2.1875 18.6875 L 7.21875 23.6875 C 7.375 23.84375 7.59375 23.9375 7.8125 23.9375 C 7.90625 23.9375 7.9375 23.90625 8.03125 23.875 C 8.34375 23.75 8.4375 23.4375 8.4375 23.09375 L 8.4375 16.65625 C 8.4375 16.1875 8.125 15.78125 7.65625 15.78125 Z M 13.8125 19.46875 C 13.375 19.46875 12.96875 19.90625 12.96875 20.34375 C 12.96875 20.78125 13.375 21.21875 13.8125 21.21875 L 15.875 21.34375 L 15.40625 22.5 L 12.75 22.5 L 11.4375 20.03125 L 12.78125 17.5 L 15.625 17.5 L 16.28125 18.75 L 18 18.75 L 16.875 16.28125 L 16.625 15.9375 L 11.75 15.9375 L 11.53125 16.3125 L 9.6875 19.53125 L 9.46875 19.9375 L 9.6875 20.34375 L 11.5 23.5625 L 11.75 24.0625 L 16.46875 24.0625 L 16.6875 23.53125 L 18.03125 20.71875 L 18.625 19.375 L 17.25 19.375 Z M 20.3125 15.78125 C 19.875 15.78125 19.375 16.1875 19.375 16.625 L 19.375 18.75 L 21.25 18.75 L 21.25 16.65625 C 21.25 16.1875 20.75 15.78125 20.3125 15.78125 Z M 29.8125 15.875 C 29.5 15.75 29.0625 15.8125 28.84375 16.0625 L 23.75 21.0625 L 23.75 16.65625 C 23.75 16.1875 23.4375 15.8125 22.96875 15.8125 C 22.5 15.8125 22.1875 16.1875 22.1875 16.65625 L 22.1875 23.125 C 22.1875 23.46875 22.40625 23.78125 22.71875 23.90625 C 22.8125 23.9375 22.9375 23.96875 23.03125 23.96875 C 23.25 23.96875 23.53125 23.875 23.6875 23.71875 L 28.75 18.71875 L 28.75 23.125 C 28.75 23.59375 29.0625 23.96875 29.53125 23.96875 C 30 23.96875 30.3125 23.59375 30.3125 23.125 L 30.3125 16.65625 C 30.3125 16.3125 30.125 16 29.8125 15.875 Z M 36.625 19.875 L 39.25 17.25 C 39.59375 16.90625 39.59375 16.375 39.25 16.0625 C 38.90625 15.71875 38.375 15.71875 38.0625 16.0625 L 35.4375 18.6875 L 32.8125 16.0625 C 32.46875 15.71875 31.9375 15.71875 31.625 16.0625 C 31.28125 16.40625 31.28125 16.9375 31.625 17.25 L 34.25 19.875 L 31.625 22.5 C 31.28125 22.84375 31.28125 23.375 31.625 23.6875 C 31.78125 23.84375 32 23.9375 32.21875 23.9375 C 32.4375 23.9375 32.65625 23.84375 32.8125 23.6875 L 35.4375 21.0625 L 38.0625 23.6875 C 38.21875 23.84375 38.4375 23.9375 38.65625 23.9375 C 38.875 23.9375 39.09375 23.84375 39.25 23.6875 C 39.59375 23.34375 39.59375 22.8125 39.25 22.5 Z M 19.375 23.09375 C 19.375 23.53125 19.84375 23.9375 20.3125 23.9375 C 20.75 23.9375 21.25 23.53125 21.25 23.09375 L 21.25 19.375 L 19.375 19.375 Z M 19.375 23.09375 "/>
</g>
</svg>
