<?xml version="1.0" encoding="UTF-8"?>
<svg xmlns="http://www.w3.org/2000/svg" xmlns:xlink="http://www.w3.org/1999/xlink" width="40px" height="40px" viewBox="0 0 40 40" version="1.1">
<g id="surface1">
<path style=" stroke:none;fill-rule:nonzero;fill:rgb(51.372549%,80.392157%,16.078431%);fill-opacity:1;" d="M 35.726562 25.234375 C 35.636719 25.234375 35.546875 25.210938 35.464844 25.164062 L 34.636719 24.675781 C 34.515625 24.605469 34.574219 24.582031 34.617188 24.566406 C 34.78125 24.507812 34.8125 24.496094 34.992188 24.394531 C 35.007812 24.386719 35.03125 24.390625 35.050781 24.402344 L 35.6875 24.777344 C 35.710938 24.792969 35.742188 24.792969 35.765625 24.777344 L 38.246094 23.347656 C 38.269531 23.332031 38.28125 23.308594 38.28125 23.28125 L 38.28125 20.417969 C 38.28125 20.390625 38.269531 20.363281 38.246094 20.347656 L 35.765625 18.917969 C 35.742188 18.90625 35.710938 18.90625 35.6875 18.917969 L 33.210938 20.347656 C 33.1875 20.363281 33.171875 20.390625 33.171875 20.417969 L 33.171875 23.28125 C 33.171875 23.308594 33.1875 23.332031 33.210938 23.347656 L 33.890625 23.738281 C 34.257812 23.921875 34.484375 23.707031 34.484375 23.488281 L 34.484375 20.660156 C 34.484375 20.621094 34.515625 20.589844 34.554688 20.589844 L 34.871094 20.589844 C 34.910156 20.589844 34.941406 20.621094 34.941406 20.660156 L 34.941406 23.488281 C 34.941406 23.980469 34.675781 24.261719 34.207031 24.261719 C 34.0625 24.261719 33.953125 24.261719 33.636719 24.105469 L 32.984375 23.734375 C 32.824219 23.640625 32.726562 23.464844 32.726562 23.28125 L 32.726562 20.417969 C 32.726562 20.230469 32.824219 20.058594 32.984375 19.964844 L 35.464844 18.53125 C 35.625 18.445312 35.832031 18.445312 35.988281 18.53125 L 38.46875 19.964844 C 38.628906 20.058594 38.726562 20.230469 38.726562 20.417969 L 38.726562 23.28125 C 38.726562 23.464844 38.628906 23.640625 38.46875 23.734375 L 35.988281 25.164062 C 35.910156 25.210938 35.820312 25.234375 35.726562 25.234375 M 36.492188 23.261719 C 35.40625 23.261719 35.179688 22.761719 35.179688 22.34375 C 35.179688 22.304688 35.210938 22.273438 35.25 22.273438 L 35.574219 22.273438 C 35.609375 22.273438 35.636719 22.300781 35.644531 22.335938 C 35.691406 22.660156 35.835938 22.824219 36.492188 22.824219 C 37.015625 22.824219 37.238281 22.707031 37.238281 22.429688 C 37.238281 22.269531 37.175781 22.152344 36.363281 22.070312 C 35.683594 22.003906 35.265625 21.855469 35.265625 21.3125 C 35.265625 20.8125 35.6875 20.511719 36.394531 20.511719 C 37.1875 20.511719 37.582031 20.789062 37.628906 21.378906 C 37.632812 21.402344 37.625 21.421875 37.613281 21.4375 C 37.597656 21.449219 37.578125 21.457031 37.558594 21.457031 L 37.238281 21.457031 C 37.203125 21.457031 37.175781 21.433594 37.167969 21.402344 C 37.089844 21.058594 36.902344 20.949219 36.394531 20.949219 C 35.824219 20.949219 35.757812 21.148438 35.757812 21.296875 C 35.757812 21.476562 35.835938 21.53125 36.605469 21.632812 C 37.367188 21.730469 37.730469 21.875 37.730469 22.410156 C 37.730469 22.953125 37.277344 23.261719 36.492188 23.261719 "/>
<path style=" stroke:none;fill-rule:nonzero;fill:rgb(25.098039%,25.490196%,21.568627%);fill-opacity:1;" d="M 30.621094 21.382812 C 30.71875 21.328125 30.777344 21.222656 30.777344 21.109375 L 30.777344 20.375 C 30.777344 20.261719 30.71875 20.15625 30.621094 20.097656 L 28.003906 18.582031 C 27.90625 18.523438 27.785156 18.523438 27.6875 18.582031 L 25.058594 20.097656 C 24.960938 20.15625 24.898438 20.261719 24.898438 20.375 L 24.898438 23.410156 C 24.898438 23.523438 24.960938 23.628906 25.058594 23.6875 L 27.671875 25.175781 C 27.769531 25.230469 27.886719 25.230469 27.984375 25.179688 L 29.566406 24.300781 C 29.613281 24.269531 29.644531 24.21875 29.648438 24.160156 C 29.648438 24.105469 29.617188 24.050781 29.566406 24.023438 L 26.921875 22.503906 C 26.871094 22.476562 26.839844 22.421875 26.839844 22.367188 L 26.839844 21.414062 C 26.839844 21.359375 26.871094 21.304688 26.917969 21.277344 L 27.742188 20.800781 C 27.792969 20.773438 27.851562 20.773438 27.902344 20.800781 L 28.726562 21.277344 C 28.777344 21.304688 28.804688 21.359375 28.804688 21.414062 L 28.804688 22.164062 C 28.804688 22.21875 28.835938 22.273438 28.886719 22.300781 C 28.933594 22.328125 28.996094 22.328125 29.042969 22.300781 L 30.621094 21.382812 "/>
<path style=" stroke:none;fill-rule:nonzero;fill:rgb(51.372549%,80.392157%,16.078431%);fill-opacity:1;" d="M 27.808594 21.242188 C 27.828125 21.230469 27.851562 21.230469 27.867188 21.242188 L 28.375 21.535156 C 28.390625 21.542969 28.402344 21.566406 28.402344 21.585938 L 28.402344 22.167969 C 28.402344 22.191406 28.390625 22.210938 28.375 22.222656 L 27.867188 22.511719 C 27.851562 22.523438 27.828125 22.523438 27.808594 22.511719 L 27.304688 22.222656 C 27.285156 22.210938 27.273438 22.191406 27.273438 22.167969 L 27.273438 21.585938 C 27.273438 21.566406 27.285156 21.542969 27.304688 21.535156 L 27.808594 21.242188 "/>
<path style=" stroke:none;fill-rule:nonzero;fill:rgb(25.098039%,25.490196%,21.568627%);fill-opacity:1;" d="M 20.964844 22.453125 C 20.964844 22.484375 20.949219 22.507812 20.921875 22.523438 L 20.019531 23.042969 C 19.996094 23.058594 19.964844 23.058594 19.941406 23.042969 L 19.039062 22.523438 C 19.011719 22.507812 19 22.484375 19 22.453125 L 19 21.410156 C 19 21.382812 19.015625 21.355469 19.039062 21.34375 L 19.941406 20.820312 C 19.964844 20.804688 19.996094 20.804688 20.019531 20.820312 L 20.925781 21.34375 C 20.949219 21.355469 20.964844 21.382812 20.964844 21.410156 Z M 21.207031 14.730469 C 21.160156 14.703125 21.097656 14.703125 21.050781 14.734375 C 21 14.761719 20.972656 14.8125 20.972656 14.871094 L 20.972656 18.90625 C 20.972656 18.945312 20.949219 18.980469 20.914062 19 C 20.882812 19.019531 20.839844 19.019531 20.804688 19 L 20.144531 18.621094 C 20.046875 18.566406 19.925781 18.566406 19.828125 18.621094 L 17.199219 20.140625 C 17.101562 20.195312 17.039062 20.300781 17.039062 20.414062 L 17.039062 23.453125 C 17.039062 23.566406 17.101562 23.671875 17.199219 23.726562 L 19.828125 25.246094 C 19.925781 25.304688 20.046875 25.304688 20.144531 25.246094 L 22.777344 23.726562 C 22.875 23.671875 22.9375 23.566406 22.9375 23.453125 L 22.9375 15.882812 C 22.9375 15.765625 22.875 15.660156 22.773438 15.605469 L 21.207031 14.730469 "/>
<path style=" stroke:none;fill-rule:nonzero;fill:rgb(51.372549%,80.392157%,16.078431%);fill-opacity:1;" d="M 11.949219 18.566406 C 12.046875 18.507812 12.167969 18.507812 12.265625 18.566406 L 14.898438 20.082031 C 14.996094 20.140625 15.054688 20.246094 15.054688 20.359375 L 15.054688 23.394531 C 15.054688 23.507812 14.996094 23.613281 14.898438 23.671875 L 12.265625 25.191406 C 12.167969 25.246094 12.046875 25.246094 11.949219 25.191406 L 9.320312 23.671875 C 9.222656 23.613281 9.160156 23.507812 9.160156 23.394531 L 9.160156 20.359375 C 9.160156 20.246094 9.222656 20.140625 9.320312 20.082031 L 11.949219 18.566406 "/>
<path style=" stroke:none;fill-rule:nonzero;fill:rgb(25.098039%,25.490196%,21.568627%);fill-opacity:1;" d="M 7.164062 20.332031 C 7.164062 20.21875 7.105469 20.113281 7.007812 20.054688 L 4.378906 18.542969 C 4.332031 18.515625 4.28125 18.503906 4.230469 18.5 L 4.203125 18.5 C 4.15625 18.503906 4.105469 18.515625 4.058594 18.542969 L 1.429688 20.054688 C 1.332031 20.113281 1.269531 20.21875 1.269531 20.332031 L 1.277344 24.40625 C 1.277344 24.464844 1.304688 24.515625 1.355469 24.542969 C 1.40625 24.574219 1.464844 24.574219 1.515625 24.542969 L 3.078125 23.648438 C 3.175781 23.589844 3.234375 23.488281 3.234375 23.375 L 3.234375 21.46875 C 3.234375 21.355469 3.296875 21.25 3.394531 21.195312 L 4.058594 20.8125 C 4.109375 20.78125 4.164062 20.769531 4.21875 20.769531 C 4.273438 20.769531 4.328125 20.78125 4.375 20.8125 L 5.042969 21.195312 C 5.140625 21.25 5.199219 21.355469 5.199219 21.46875 L 5.199219 23.375 C 5.199219 23.488281 5.261719 23.589844 5.359375 23.648438 L 6.921875 24.542969 C 6.972656 24.574219 7.03125 24.574219 7.082031 24.542969 C 7.128906 24.515625 7.160156 24.464844 7.160156 24.40625 L 7.164062 20.332031 "/>
</g>
</svg>
