<?xml version="1.0" encoding="UTF-8"?>
<svg xmlns="http://www.w3.org/2000/svg" xmlns:xlink="http://www.w3.org/1999/xlink" width="40px" height="40px" viewBox="0 0 40 40" version="1.1">
<g id="surface1">
<path style=" stroke:none;fill-rule:nonzero;fill:rgb(53.72549%,57.647059%,74.509804%);fill-opacity:1;" d="M 39.9375 20.046875 C 39.9375 8.976562 30.996094 0 19.96875 0 C 8.941406 0 0 8.976562 0 20.046875 C 0 31.117188 8.941406 40.09375 19.96875 40.09375 C 30.996094 40.09375 39.9375 31.117188 39.9375 20.046875 Z M 39.9375 20.046875 "/>
<path style=" stroke:none;fill-rule:evenodd;fill:rgb(13.72549%,14.509804%,19.215686%);fill-opacity:1;" d="M 5.605469 31.914062 L 7.796875 10.550781 L 12.855469 10.550781 C 15.042969 10.8125 16.136719 12.925781 16.136719 16.617188 C 16.136719 22.949219 13.539062 26.640625 11.214844 26.378906 L 8.753906 26.378906 L 8.207031 31.917969 Z M 9.300781 22.421875 L 9.984375 14.507812 L 11.761719 14.507812 C 12.71875 14.507812 13.402344 15.296875 13.402344 16.878906 C 13.265625 21.363281 12.171875 22.15625 10.941406 22.421875 Z M 15.628906 26.375 L 17.816406 5.011719 L 20.417969 5.011719 L 19.871094 10.550781 L 22.332031 10.550781 C 24.519531 10.8125 25.339844 12.921875 25.066406 15.5625 L 24.109375 26.375 L 21.375 26.375 L 22.332031 16.617188 C 22.46875 15.296875 22.46875 14.507812 21.511719 14.507812 L 19.460938 14.507812 L 18.230469 26.375 Z M 23.933594 31.914062 L 26.121094 10.550781 L 31.183594 10.550781 C 33.371094 10.8125 34.464844 12.925781 34.464844 16.617188 C 34.464844 22.949219 31.867188 26.640625 29.542969 26.378906 L 27.078125 26.378906 L 26.53125 31.917969 Z M 27.628906 22.421875 L 28.3125 14.507812 L 30.089844 14.507812 C 31.046875 14.507812 31.730469 15.296875 31.730469 16.878906 C 31.59375 21.363281 30.5 22.15625 29.269531 22.421875 Z M 27.628906 22.421875 "/>
</g>
</svg>
