<?xml version="1.0" encoding="UTF-8"?>
<svg xmlns="http://www.w3.org/2000/svg" xmlns:xlink="http://www.w3.org/1999/xlink" width="40px" height="40px" viewBox="0 0 40 40" version="1.1">
<g id="surface1">
<path style="fill-rule:evenodd;fill:rgb(0%,0%,0%);fill-opacity:1;stroke-width:6;stroke-linecap:butt;stroke-linejoin:round;stroke:rgb(0%,0%,0%);stroke-opacity:1;stroke-miterlimit:4;" d="M 64.453125 59.813965 C 65.020313 55.207031 64.848438 54.526367 68.354688 55.273438 L 69.248438 55.356445 C 71.938281 55.472656 75.470313 54.933105 77.541406 53.986816 C 81.992969 51.961426 84.639844 48.574707 80.248438 49.462891 C 70.210938 51.488281 69.523438 48.159668 69.523438 48.159668 C 80.119531 32.77002 84.545313 13.22168 80.721094 8.432129 C 70.296875 -4.616699 52.258594 1.559082 51.957813 1.716797 L 51.854688 1.733398 C 49.878125 1.334961 47.660938 1.094238 45.16875 1.052734 C 40.63125 0.978027 37.185156 2.214844 34.572656 4.157227 C 34.572656 4.157227 2.380469 -8.833496 3.875781 20.501465 C 4.19375 26.743652 13.010938 67.716309 23.521094 55.339844 C 27.353906 50.815918 31.066406 46.989258 31.066406 46.989258 C 32.914062 48.18457 35.122656 48.798828 37.434375 48.583008 L 37.614844 48.433594 C 37.554688 49.022949 37.580469 49.612305 37.683594 50.193359 C 34.976562 53.156738 35.775781 53.679688 30.361719 54.76709 C 24.8875 55.871094 28.101563 57.838379 30.198438 58.353027 C 32.750781 58.983887 38.6375 59.86377 42.616406 54.401855 L 42.461719 55.032715 C 43.51875 55.862793 43.45 61.009277 43.604688 64.694824 C 43.750781 68.37207 44 71.808594 44.773438 73.833984 C 45.538281 75.851074 46.440625 81.072266 53.55625 79.578125 C 59.494531 78.324707 64.040625 76.531738 64.453125 59.822266 " transform="matrix(0.454545,0,0,0.470588,1.25,1.176471)"/>
<path style=" stroke:none;fill-rule:evenodd;fill:rgb(20%,40.392157%,56.862745%);fill-opacity:1;" d="M 37.726562 24.453125 C 33.164062 25.40625 32.851562 23.839844 32.851562 23.839844 C 37.667969 16.59375 39.679688 7.398438 37.941406 5.144531 C 33.203125 -0.996094 25.003906 1.910156 24.867188 1.984375 L 24.820312 1.992188 C 23.921875 1.804688 22.914062 1.691406 21.777344 1.671875 C 19.714844 1.636719 18.152344 2.21875 16.964844 3.132812 C 16.964844 3.132812 2.332031 -2.980469 3.011719 10.824219 C 3.15625 13.757812 7.160156 33.042969 11.9375 27.21875 C 13.683594 25.089844 15.371094 23.289062 15.371094 23.289062 C 16.207031 23.851562 17.210938 24.140625 18.261719 24.039062 L 18.34375 23.96875 C 18.320312 24.230469 18.332031 24.492188 18.378906 24.796875 C 17.148438 26.191406 17.507812 26.4375 15.050781 26.949219 C 12.558594 27.46875 14.023438 28.394531 14.976562 28.636719 C 16.132812 28.933594 18.8125 29.347656 20.621094 26.777344 L 20.546875 27.070312 C 21.03125 27.464844 21.371094 29.621094 21.3125 31.574219 C 21.257812 33.527344 21.21875 34.871094 21.597656 35.917969 C 21.976562 36.96875 22.355469 39.324219 25.589844 38.625 C 28.292969 38.035156 29.691406 36.511719 29.886719 33.972656 C 30.027344 32.167969 30.339844 32.4375 30.359375 30.824219 L 30.609375 30.058594 C 30.898438 27.613281 30.65625 26.824219 32.320312 27.191406 L 32.722656 27.226562 C 33.949219 27.28125 35.554688 27.027344 36.492188 26.582031 C 38.519531 25.628906 39.722656 24.035156 37.722656 24.453125 Z M 37.726562 24.453125 "/>
<path style="fill:none;stroke-width:2;stroke-linecap:round;stroke-linejoin:round;stroke:rgb(100%,100%,100%);stroke-opacity:1;stroke-miterlimit:4;" d="M 43.046094 52.442871 C 42.771094 62.121582 43.114844 71.858398 44.085938 74.232422 C 45.048438 76.598145 47.119531 81.205078 54.235156 79.710938 C 60.182031 78.45752 62.339063 76.041992 63.275781 70.712891 C 63.971875 66.786621 65.303906 55.887695 65.475781 53.654785 M 34.521094 3.941406 C 34.521094 3.941406 2.311719 -8.958008 3.807031 20.376953 C 4.125 26.619141 12.933594 67.591797 23.44375 55.215332 C 27.285156 50.691406 30.757031 47.138672 30.757031 47.138672 M 51.914844 1.592285 C 50.80625 1.932617 69.832813 -5.230957 80.652344 8.315918 C 84.476562 13.097168 80.042188 32.645508 69.454688 48.043457 M 69.454688 48.043457 C 69.454688 48.043457 70.142188 51.37207 80.179688 49.338379 C 84.571094 48.450195 81.924219 51.836914 77.472656 53.862305 C 73.811719 55.530762 65.613281 55.954102 65.475781 53.654785 C 65.132031 47.728027 69.789844 49.529297 69.454688 48.043457 C 69.153906 46.707031 67.065625 45.387207 65.690625 42.116699 C 64.478906 39.25293 49.173438 17.330566 69.935938 20.584473 C 70.692188 20.435059 64.521875 1.243652 45.091406 0.928223 C 25.669531 0.621094 26.314063 24.328125 26.314063 24.328125 M 37.614844 50.068848 C 34.907813 53.032227 35.698438 53.555176 30.292969 54.642578 C 24.810156 55.746582 28.032813 57.713867 30.129688 58.228516 C 32.673438 58.859375 38.56875 59.739258 42.547656 54.277344 C 43.759375 52.617188 42.539063 49.960938 40.871875 49.288574 C 40.072656 48.964844 38.998438 48.549805 37.614844 50.068848 Z M 37.614844 50.068848 " transform="matrix(0.454545,0,0,0.470588,1.25,1.176471)"/>
<path style="fill:none;stroke-width:2;stroke-linecap:round;stroke-linejoin:round;stroke:rgb(100%,100%,100%);stroke-opacity:1;stroke-miterlimit:4;" d="M 37.434375 50.019043 C 37.159375 48.275879 38.01875 46.200684 38.938281 43.776855 C 40.321875 40.141113 43.501563 36.49707 40.957813 24.950684 C 39.058594 16.351074 26.322656 23.166016 26.314063 24.328125 C 26.305469 25.498535 26.889844 30.238281 26.099219 35.766602 C 25.067969 42.97998 30.782813 49.081055 37.357031 48.458496 " transform="matrix(0.454545,0,0,0.470588,1.25,1.176471)"/>
<path style="fill:none;stroke-width:2;stroke-linecap:round;stroke-linejoin:round;stroke:rgb(100%,100%,100%);stroke-opacity:1;stroke-miterlimit:4;" d="M 34.400781 24.153809 C 34.349219 24.552246 35.148438 25.614746 36.196875 25.755859 C 37.236719 25.896973 38.130469 25.066895 38.190625 24.676758 C 38.242188 24.27832 37.442969 23.838379 36.394531 23.688965 C 35.354688 23.547852 34.460938 23.755371 34.400781 24.153809 Z M 66.197656 23.340332 C 66.249219 23.73877 65.45 24.80127 64.410156 24.950684 C 63.361719 25.091797 62.467969 24.261719 62.407813 23.863281 C 62.35625 23.464844 63.155469 23.024902 64.203906 22.883789 C 65.24375 22.734375 66.1375 22.941895 66.197656 23.340332 Z M 69.935938 20.584473 C 70.107813 23.713867 69.248438 25.838867 69.136719 29.16748 C 68.973438 33.998535 71.491406 39.535156 67.701563 45.080078 " transform="matrix(0.454545,0,0,0.470588,1.25,1.176471)"/>
</g>
</svg>
