<?xml version="1.0" encoding="UTF-8"?>
<svg xmlns="http://www.w3.org/2000/svg" xmlns:xlink="http://www.w3.org/1999/xlink" width="40px" height="40px" viewBox="0 0 40 40" version="1.1">
<defs>
<linearGradient id="linear0" gradientUnits="userSpaceOnUse" x1="0.52" y1="0" x2="0.48" y2="1" gradientTransform="matrix(27.90625,0,0,28.125,1.175781,1.175781)">
<stop offset="0" style="stop-color:rgb(21.960784%,49.411765%,72.156863%);stop-opacity:1;"/>
<stop offset="1" style="stop-color:rgb(21.176471%,41.176471%,58.039216%);stop-opacity:1;"/>
</linearGradient>
<linearGradient id="linear1" gradientUnits="userSpaceOnUse" x1="0.5" y1="0" x2="0.5" y2="1" gradientTransform="matrix(27.90625,0,0,28.125,10.917969,10.699219)">
<stop offset="0" style="stop-color:rgb(100%,87.843137%,32.156863%);stop-opacity:1;"/>
<stop offset="1" style="stop-color:rgb(100%,76.470588%,19.215686%);stop-opacity:1;"/>
</linearGradient>
</defs>
<g id="surface1">
<path style=" stroke:none;fill-rule:evenodd;fill:url(#linear0);" d="M 19.863281 1.175781 C 10.308594 1.175781 10.902344 5.34375 10.902344 5.34375 L 10.914062 9.660156 L 20.035156 9.660156 L 20.035156 10.953125 L 7.292969 10.953125 C 7.292969 10.953125 1.175781 10.257812 1.175781 19.949219 C 1.175781 29.644531 6.515625 29.300781 6.515625 29.300781 L 9.699219 29.300781 L 9.699219 24.804688 C 9.699219 24.804688 9.527344 19.4375 14.953125 19.4375 L 24 19.4375 C 24 19.4375 29.082031 19.519531 29.082031 14.5 L 29.082031 6.199219 C 29.082031 6.199219 29.851562 1.175781 19.863281 1.175781 Z M 14.835938 4.078125 C 15.269531 4.078125 15.6875 4.253906 15.996094 4.5625 C 16.640625 5.207031 16.640625 6.25 15.996094 6.894531 C 15.6875 7.203125 15.269531 7.378906 14.835938 7.378906 C 14.398438 7.378906 13.984375 7.203125 13.675781 6.894531 C 13.03125 6.25 13.03125 5.207031 13.675781 4.5625 C 13.984375 4.253906 14.398438 4.078125 14.835938 4.078125 Z M 14.835938 4.078125 "/>
<path style=" stroke:none;fill-rule:evenodd;fill:url(#linear1);" d="M 20.136719 38.824219 C 29.691406 38.824219 29.097656 34.65625 29.097656 34.65625 L 29.085938 30.339844 L 19.964844 30.339844 L 19.964844 29.046875 L 32.707031 29.046875 C 32.707031 29.046875 38.824219 29.742188 38.824219 20.050781 C 38.824219 10.355469 33.484375 10.699219 33.484375 10.699219 L 30.300781 10.699219 L 30.300781 15.195312 C 30.300781 15.195312 30.472656 20.5625 25.046875 20.5625 L 16 20.5625 C 16 20.5625 10.917969 20.480469 10.917969 25.5 L 10.917969 33.800781 C 10.917969 33.800781 10.148438 38.824219 20.136719 38.824219 Z M 25.164062 35.921875 C 24.730469 35.921875 24.3125 35.746094 24.003906 35.4375 C 23.359375 34.792969 23.359375 33.75 24.003906 33.105469 C 24.3125 32.796875 24.730469 32.621094 25.164062 32.621094 C 25.601562 32.621094 26.015625 32.796875 26.324219 33.105469 C 26.96875 33.75 26.96875 34.792969 26.324219 35.4375 C 26.015625 35.746094 25.601562 35.921875 25.164062 35.921875 Z M 25.164062 35.921875 "/>
</g>
</svg>
