<?xml version="1.0" encoding="UTF-8"?>
<svg xmlns="http://www.w3.org/2000/svg" xmlns:xlink="http://www.w3.org/1999/xlink" width="40px" height="40px" viewBox="0 0 40 40" version="1.1">
<g id="surface1">
<path style=" stroke:none;fill-rule:nonzero;fill:rgb(18.431373%,25.098039%,41.568627%);fill-opacity:1;" d="M 31.824219 13.039062 L 31.824219 26.875 L 20.054688 33.851562 L 19.949219 33.945312 L 19.949219 39.125 L 20.054688 39.226562 L 36.617188 29.648438 L 36.617188 10.351562 L 36.460938 10.3125 L 31.773438 12.925781 L 31.800781 13.039062 "/>
<path style=" stroke:none;fill-rule:nonzero;fill:rgb(18.431373%,25.098039%,41.568627%);fill-opacity:1;" d="M 8.25 27 L 20.054688 33.851562 L 20.054688 39.226562 L 3.367188 29.613281 L 3.367188 10.386719 L 3.539062 10.363281 L 8.199219 13.070312 L 8.25 13.226562 L 8.25 27 "/>
<path style=" stroke:none;fill-rule:nonzero;fill:rgb(18.431373%,25.098039%,41.568627%);fill-opacity:1;" d="M 8.25 13.226562 L 3.367188 10.386719 L 20.019531 0.773438 L 36.632812 10.351562 L 31.824219 13.039062 L 20.019531 6.300781 L 8.25 13.226562 M 9.394531 26.25 L 9.394531 20.59375 L 9.523438 20.667969 L 14.0625 23.308594 L 14.101562 23.332031 L 14.101562 28.808594 L 9.394531 26.25 M 26.023438 28.9375 L 26.023438 23.4375 L 26.054688 23.421875 L 30.511719 20.8125 L 30.648438 20.730469 L 30.648438 26.199219 L 26.023438 28.9375 M 20.265625 32.332031 L 20.136719 32.199219 L 20.136719 26.875 L 20.296875 26.820312 L 24.757812 24.21875 L 24.894531 24.140625 L 24.894531 29.59375 L 20.269531 32.332031 "/>
<path style=" stroke:none;fill-rule:nonzero;fill:rgb(18.431373%,25.098039%,41.568627%);fill-opacity:1;" d="M 15.5625 29.757812 L 15.5625 24.117188 L 15.691406 24.1875 L 20.226562 26.828125 L 20.261719 32.332031 L 15.5625 29.757812 M 19.777344 7.167969 L 15.148438 9.90625 L 19.851562 12.644531 L 24.476562 9.945312 L 19.777344 7.167969 M 9.394531 18.863281 L 9.394531 13.296875 L 9.523438 13.296875 L 14.0625 15.9375 L 14.101562 16.039062 L 14.101562 21.433594 L 9.394531 18.863281 "/>
<path style=" stroke:none;fill-rule:nonzero;fill:rgb(18.431373%,25.098039%,41.568627%);fill-opacity:1;" d="M 14.019531 10.5625 L 9.394531 13.300781 L 14.097656 16.039062 L 18.722656 13.335938 L 14.019531 10.5625 M 26.023438 21.5625 L 26.023438 16.15625 L 26.054688 16.027344 L 30.511719 13.4375 L 30.648438 13.46875 L 30.648438 18.816406 L 26.023438 21.5625 "/>
<path style=" stroke:none;fill-rule:nonzero;fill:rgb(18.431373%,25.098039%,41.568627%);fill-opacity:1;" d="M 25.9375 10.691406 L 21.320312 13.4375 L 26.023438 16.175781 L 30.648438 13.476562 L 25.9375 10.691406 M 20.265625 24.953125 L 20.136719 24.820312 L 20.136719 19.621094 L 20.265625 19.554688 L 20.296875 19.429688 L 24.757812 16.828125 L 24.894531 16.859375 L 24.894531 22.214844 L 20.269531 24.953125 "/>
<path style=" stroke:none;fill-rule:nonzero;fill:rgb(18.431373%,25.098039%,41.568627%);fill-opacity:1;" d="M 15.5625 22.382812 L 15.5625 16.820312 L 15.691406 16.820312 L 20.226562 19.460938 L 20.261719 19.5625 L 20.261719 24.953125 L 15.5625 22.382812 "/>
<path style=" stroke:none;fill-rule:nonzero;fill:rgb(18.431373%,25.098039%,41.568627%);fill-opacity:1;" d="M 20.1875 14.082031 L 15.5625 16.820312 L 20.265625 19.554688 L 24.890625 16.855469 L 20.1875 14.082031 "/>
</g>
</svg>
